HIERARCHY
ROOT Hips
{
	OFFSET 0.000000 0.000000 0.000000
	CHANNELS 6 Xposition Yposition Zposition Xrotation Yrotation Zrotation
	JOINT LeftUpLeg_virtual
	{
		OFFSET 0.000000 0.000000 0.000000
		CHANNELS 3 Xrotation Yrotation Zrotation
		JOINT LeftUpLeg
		{
			OFFSET 10.205400 -3.823500 0.155100
			CHANNELS 3 Xrotation Yrotation Zrotation
			JOINT LeftLeg
			{
				OFFSET 0.708757 -12.982077 0.567790
				CHANNELS 3 Xrotation Yrotation Zrotation
				JOINT LeftFoot
				{
					OFFSET -0.708756 -10.717838 -2.184338
					CHANNELS 3 Xrotation Yrotation Zrotation
					JOINT LeftToeBase
					{
						OFFSET 0.108149 -7.191104 7.560241
						CHANNELS 3 Xrotation Yrotation Zrotation
						JOINT LeftToe_End
						{
							OFFSET 0.070230 0.081724 4.490308
							CHANNELS 3 Xrotation Yrotation Zrotation
							End Site
							{
								OFFSET 0 0 0
							}
						}
					}
				}
			}
		}
	}
	JOINT RightUpLeg_virtual
	{
		OFFSET 0.000000 0.000000 0.000000
		CHANNELS 3 Xrotation Yrotation Zrotation
		JOINT RightUpLeg
		{
			OFFSET -10.205400 -3.823500 0.005500
			CHANNELS 3 Xrotation Yrotation Zrotation
			JOINT RightLeg
			{
				OFFSET -0.708756 -12.982134 0.610632
				CHANNELS 3 Xrotation Yrotation Zrotation
				JOINT RightFoot
				{
					OFFSET 0.708754 -10.717769 -1.945823
					CHANNELS 3 Xrotation Yrotation Zrotation
					JOINT RightToeBase
					{
						OFFSET -0.108140 -7.191069 7.372968
						CHANNELS 3 Xrotation Yrotation Zrotation
						JOINT RightToe_End
						{
							OFFSET -0.070227 0.081735 4.479403
							CHANNELS 3 Xrotation Yrotation Zrotation
							End Site
							{
								OFFSET 0 0 0
							}
						}
					}
				}
			}
		}
	}
	JOINT Spine_virtual
	{
		OFFSET 0.000000 0.000000 0.000000
		CHANNELS 3 Xrotation Yrotation Zrotation
		JOINT Spine
		{
			OFFSET 0.000000 6.876099 0.125700
			CHANNELS 3 Xrotation Yrotation Zrotation
			JOINT Spine1
			{
				OFFSET 0.000000 5.730043 0.104720
				CHANNELS 3 Xrotation Yrotation Zrotation
				JOINT Spine1_split
				{
					OFFSET 0.000000 5.730043 0.104720
					CHANNELS 3 Xrotation Yrotation Zrotation
					JOINT Spine2
					{
						OFFSET 0.000000 5.730043 0.104720
						CHANNELS 3 Xrotation Yrotation Zrotation
						JOINT Neck_virtual
						{
							OFFSET 0.000000 0.000000 0.000000
							CHANNELS 3 Xrotation Yrotation Zrotation
							JOINT Neck
							{
								OFFSET 0.000000 10.314075 0.188496
								CHANNELS 3 Xrotation Yrotation Zrotation
								JOINT Head
								{
									OFFSET 0.000000 7.643700 -2.377400
									CHANNELS 3 Xrotation Yrotation Zrotation
									JOINT HeadTop_End
									{
										OFFSET 0.000000 43.788605 -13.619600
										CHANNELS 3 Xrotation Yrotation Zrotation
										End Site
										{
											OFFSET 0 0 0
										}
									}
								}
							}
						}
						JOINT LeftShoulder_virtual
						{
							OFFSET 0.000000 0.000000 0.000000
							CHANNELS 3 Xrotation Yrotation Zrotation
							JOINT LeftShoulder
							{
								OFFSET 2.196100 4.412489 0.087492
								CHANNELS 3 Xrotation Yrotation Zrotation
								JOINT LeftShoulder_split
								{
									OFFSET 2.196100 4.412489 0.087492
									CHANNELS 3 Xrotation Yrotation Zrotation
									JOINT LeftArm
									{
										OFFSET 8.771219 -2.981674 -0.026999
										CHANNELS 3 Xrotation Yrotation Zrotation
										JOINT LeftForeArm
										{
											OFFSET 8.512804 0.000000 -0.000000
											CHANNELS 3 Xrotation Yrotation Zrotation
											JOINT LeftHand
											{
												OFFSET 18.484802 0.000000 -0.000000
												CHANNELS 3 Xrotation Yrotation Zrotation
												End Site
												{
													OFFSET 0 0 0
												}
											}
										}
									}
								}
							}
						}
						JOINT RightShoulder_virtual
						{
							OFFSET 0.000000 0.000000 0.000000
							CHANNELS 3 Xrotation Yrotation Zrotation
							JOINT RightShoulder
							{
								OFFSET -2.196100 4.412496 0.070690
								CHANNELS 3 Xrotation Yrotation Zrotation
								JOINT RightShoulder_split
								{
									OFFSET -2.196100 4.412496 0.070690
									CHANNELS 3 Xrotation Yrotation Zrotation
									JOINT RightArm
									{
										OFFSET -8.771282 -2.981682 -0.094208
										CHANNELS 3 Xrotation Yrotation Zrotation
										JOINT RightForeArm
										{
											OFFSET -8.494598 0.000000 0.000000
											CHANNELS 3 Xrotation Yrotation Zrotation
											JOINT RightHand
											{
												OFFSET -18.483803 0.000000 0.000001
												CHANNELS 3 Xrotation Yrotation Zrotation
												End Site
												{
													OFFSET 0 0 0
												}
											}
										}
									}
								}
							}
						}
					}
				}
			}
		}
	}
}
MOTION
Frames: 8
Frame Time: 0.03333333
-0.283362 30.572067 2.160553 0.000000 0.000000 0.000000 -14.648901 -1.691093 -5.117871 -29.049245 22.654836 11.065175 44.574320 -10.579755 10.226164 -6.599107 -6.035238 -2.010688 -2.270716 0.120471 -0.694515 0.000000 0.000000 0.000000 -14.120168 -1.363146 -5.260635 -9.928091 -30.752449 4.687660 35.610793 14.192361 -11.064092 -7.599181 7.636442 -4.324334 -2.156586 0.165930 -0.036168 0.000000 0.000000 0.000000 -14.368193 -2.346691 -5.809373 5.191564 -1.482659 2.769910 13.338571 -0.839319 -0.179184 0.479326 2.551520 -0.425131 0.000000 0.000000 0.000000 11.954956 -0.277575 -0.394860 11.212645 1.043137 1.447161 -1.546321 1.458493 3.511105 0.000000 0.000000 0.000000 12.281338 -0.147335 -0.465569 0.772416 7.305633 -9.983220 -1.956683 -2.662644 -0.506433 82.109891 -69.536387 10.898345 0.089135 -25.197405 1.274977 0.000000 0.000000 0.000000 12.320260 -0.376185 -0.493645 1.512948 -1.452504 10.863248 5.702364 0.193083 -2.297792 5.993754 35.314031 58.632611 -0.924992 27.750850 0.426533 0.000000 0.000000 0.000000 
-0.270121 30.574490 2.163012 0.000000 0.000000 0.000000 -14.658262 -1.750302 -5.086817 -29.025989 22.770550 11.042641 44.560277 -10.566613 10.215421 -6.610349 -6.050681 -1.978338 -2.266414 0.118155 -0.683675 0.000000 0.000000 0.000000 -14.130048 -1.418130 -5.228214 -9.968070 -30.617365 4.680850 35.612108 14.157546 -11.107535 -7.605521 7.607242 -4.328122 -2.105700 0.151507 -0.011832 0.000000 0.000000 0.000000 -14.372917 -2.400443 -5.776117 5.188493 -1.470754 2.757323 13.335945 -0.823386 -0.176401 0.476779 2.540185 -0.420755 0.000000 0.000000 0.000000 11.951683 -0.262595 -0.393968 11.235974 1.043834 1.416919 -1.568816 1.464628 3.512749 0.000000 0.000000 0.000000 12.277842 -0.135104 -0.461547 0.772194 7.316099 -10.035680 -1.960607 -2.627826 -0.514645 81.955959 -69.453578 10.827507 0.089172 -25.277089 1.272414 0.000000 0.000000 0.000000 12.311287 -0.361741 -0.488823 1.511485 -1.449260 10.843046 5.679613 0.194719 -2.297608 5.993946 35.322822 58.602265 -0.929954 27.708751 0.430192 0.000000 0.000000 0.000000 
-0.259529 30.575493 2.165760 0.000000 0.000000 0.000000 -14.663830 -1.801224 -5.051909 -29.001451 22.882139 11.017597 44.547389 -10.553390 10.206124 -6.629390 -6.066050 -1.934010 -2.260468 0.115897 -0.677840 0.000000 0.000000 0.000000 -14.138767 -1.462590 -5.192674 -10.030191 -30.486498 4.656456 35.643134 14.128669 -11.157168 -7.611684 7.598043 -4.331342 -2.054907 0.146390 0.012368 0.000000 0.000000 0.000000 -14.376034 -2.442330 -5.740475 5.182368 -1.463383 2.737752 13.334362 -0.811854 -0.174324 0.478884 2.530043 -0.417178 0.000000 0.000000 0.000000 11.951132 -0.251547 -0.393216 11.268946 1.044617 1.387077 -1.591556 1.456039 3.542740 0.000000 0.000000 0.000000 12.277908 -0.127128 -0.457854 0.772531 7.323482 -10.082110 -1.958449 -2.600911 -0.522706 81.666912 -69.358194 10.628982 0.091029 -25.381878 1.269592 0.000000 0.000000 0.000000 12.304220 -0.351724 -0.484456 1.511364 -1.436032 10.847600 5.660923 0.208222 -2.303293 6.035028 35.319905 58.522591 -0.930492 27.713199 0.433560 0.000000 0.000000 0.000000 
-0.252764 30.574146 2.169405 0.000000 0.000000 0.000000 -14.666107 -1.837629 -5.015030 -28.981879 22.975920 10.993160 44.546647 -10.547186 10.203097 -6.652646 -6.083591 -1.888586 -2.256647 0.114057 -0.678426 0.000000 0.000000 0.000000 -14.146531 -1.490899 -5.156443 -10.113739 -30.375402 4.610406 35.709844 14.111652 -11.209485 -7.620732 7.615110 -4.328403 -2.011696 0.150842 0.031597 0.000000 0.000000 0.000000 -14.378014 -2.467757 -5.704066 5.172805 -1.460734 2.712000 13.332556 -0.805910 -0.173134 0.479857 2.522244 -0.415402 0.000000 0.000000 0.000000 11.950913 -0.245776 -0.392509 11.313746 1.044936 1.363195 -1.610941 1.431112 3.604159 0.000000 0.000000 0.000000 12.279827 -0.124245 -0.454647 0.773815 7.329020 -10.117201 -1.948838 -2.586769 -0.527428 81.288144 -69.257271 10.335523 0.094803 -25.505255 1.265373 0.000000 0.000000 0.000000 12.298457 -0.347071 -0.480663 1.511967 -1.415084 10.875036 5.649324 0.234875 -2.318349 6.112153 35.305091 58.411873 -0.926596 27.761027 0.435707 0.000000 0.000000 0.000000 
-0.250283 30.571087 2.173908 0.000000 0.000000 0.000000 -14.664819 -1.853978 -4.979141 -28.972013 23.040438 10.970737 44.559369 -10.551508 10.208167 -6.675286 -6.103412 -1.853177 -2.254380 0.112877 -0.685332 0.000000 0.000000 0.000000 -14.151067 -1.503117 -5.121761 -10.209459 -30.291746 4.544054 35.804736 14.106810 -11.257420 -7.633571 7.655832 -4.312777 -1.984196 0.162335 0.043865 0.000000 0.000000 0.000000 -14.378381 -2.477710 -5.670567 5.160987 -1.461383 2.682198 13.329411 -0.805103 -0.172677 0.482696 2.517584 -0.414326 0.000000 0.000000 0.000000 11.948761 -0.245128 -0.391634 11.370517 1.045313 1.349677 -1.624723 1.393583 3.693756 0.000000 0.000000 0.000000 12.280540 -0.125893 -0.451995 0.775888 7.332697 -10.138274 -1.930931 -2.586020 -0.529367 80.870369 -69.158698 9.988275 0.099514 -25.639572 1.259719 0.000000 0.000000 0.000000 12.292198 -0.347672 -0.477520 1.512860 -1.388783 10.923814 5.646900 0.269579 -2.340874 6.215976 35.277121 58.284627 -0.918381 27.841521 0.436720 0.000000 0.000000 0.000000 
-0.251446 30.567299 2.178125 0.000000 0.000000 0.000000 -14.659193 -1.846693 -4.946566 -28.972522 23.070683 10.951438 44.578357 -10.565236 10.219933 -6.691872 -6.121955 -1.831326 -2.249857 0.112338 -0.697869 0.000000 0.000000 0.000000 -14.150831 -1.496406 -5.090348 -10.297235 -30.234857 4.472461 35.905929 14.110621 -11.297019 -7.650556 7.710626 -4.288342 -1.973420 0.177324 0.048877 0.000000 0.000000 0.000000 -14.375769 -2.475397 -5.642240 5.147897 -1.463598 2.651812 13.322825 -0.808162 -0.172653 0.485072 2.512180 -0.411972 0.000000 0.000000 0.000000 11.942445 -0.248121 -0.390315 11.437608 1.046090 1.347809 -1.631489 1.346492 3.803921 0.000000 0.000000 0.000000 12.276631 -0.130370 -0.449686 0.779547 7.335836 -10.146539 -1.908442 -2.600164 -0.528827 80.457996 -69.068990 9.631796 0.104420 -25.775105 1.252458 0.000000 0.000000 0.000000 12.283377 -0.352071 -0.474635 1.513579 -1.361213 10.992206 5.654144 0.303543 -2.365365 6.334420 35.232052 58.153317 -0.908235 27.942292 0.436985 0.000000 0.000000 0.000000 
-0.254830 30.563902 2.181934 0.000000 0.000000 0.000000 -14.648966 -1.822231 -4.920582 -28.978970 23.068680 10.932666 44.591023 -10.581362 10.233910 -6.701206 -6.133211 -1.821392 -2.242589 0.112246 -0.713608 0.000000 0.000000 0.000000 -14.144020 -1.478008 -5.063892 -10.362163 -30.197653 4.412209 35.985091 14.114550 -11.323020 -7.677711 7.763347 -4.266329 -1.970912 0.191840 0.048695 0.000000 0.000000 0.000000 -14.369275 -2.462590 -5.620936 5.134818 -1.464824 2.625075 13.311305 -0.812259 -0.172519 0.483178 2.505178 -0.413120 0.000000 0.000000 0.000000 11.930842 -0.252262 -0.388803 11.511756 1.048124 1.356366 -1.630444 1.294571 3.922788 0.000000 0.000000 0.000000 12.266157 -0.134935 -0.447591 0.784964 7.340763 -10.147535 -1.891043 -2.617185 -0.531883 80.078880 -68.990409 9.296010 0.107979 -25.904005 1.244487 0.000000 0.000000 0.000000 12.269878 -0.357533 -0.471974 1.513737 -1.335086 11.076811 5.667614 0.334397 -2.385753 6.460685 35.170000 58.023222 -0.896326 28.050147 0.436616 0.000000 0.000000 0.000000 
-0.259338 30.561831 2.183382 0.000000 0.000000 0.000000 -14.634406 -1.792568 -4.902921 -28.984297 23.043276 10.913415 44.587851 -10.592773 10.246570 -6.703940 -6.132764 -1.816422 -2.233359 0.112114 -0.729716 0.000000 0.000000 0.000000 -14.131594 -1.452860 -5.042685 -10.393781 -30.172204 4.374943 36.025853 14.112365 -11.333009 -7.711267 7.801046 -4.255282 -1.968118 0.202966 0.046084 0.000000 0.000000 0.000000 -14.357054 -2.443904 -5.607014 5.122679 -1.463050 2.605486 13.294224 -0.814535 -0.171902 0.483482 2.495313 -0.415817 0.000000 0.000000 0.000000 11.913555 -0.255005 -0.386779 11.588563 1.051355 1.372383 -1.621237 1.241058 4.038258 0.000000 0.000000 0.000000 12.247665 -0.137221 -0.445701 0.792743 7.349390 -10.150021 -1.876266 -2.637176 -0.537799 79.747540 -68.921970 9.002333 0.109470 -26.022374 1.236983 0.000000 0.000000 0.000000 12.250530 -0.361333 -0.469367 1.513341 -1.313352 11.172674 5.686574 0.358853 -2.401850 6.586607 35.095090 57.895060 -0.884507 28.155160 0.436478 0.000000 0.000000 0.000000 
